<svg width="532" height="400" preserveAspectRatio="none" viewBox="0 0 432 575" fill="none" xmlns="http://www.w3.org/2000/svg">
<g filter="url(#filter0_d_188_217)">
<path d="M416.717 7.78842H15.2831C12.8008 7.78842 10.7884 9.80079 10.7884 12.2831V554.887C10.7884 558.502 14.8762 560.714 17.9778 558.891C22.2697 556.368 28.1845 553.153 34.582 550.449C40.982 547.743 47.8521 545.553 54.0575 545.071C64.6625 544.247 72.2374 548.043 79.8681 552.091C80.1477 552.239 80.4272 552.388 80.7071 552.536C88.0632 556.446 95.5779 560.441 105.955 560.51C116.969 560.583 124.841 556.803 132.675 552.975L132.971 552.83C140.706 549.049 148.44 545.269 159.207 545.072C170.853 544.858 179.273 548.697 187.733 552.61L187.988 552.728C196.362 556.603 204.808 560.51 216.444 560.51C228.143 560.51 236.616 556.621 245.036 552.756L245.152 552.703C253.612 548.82 262.033 544.98 273.682 545.072C284.78 545.159 292.827 549.022 300.853 552.876L301.33 553.105C309.514 557.032 317.736 560.869 329.156 560.51C338.989 560.2 346.061 556.319 352.967 552.529C353.276 552.359 353.585 552.189 353.894 552.02C361.102 548.075 368.261 544.404 378.389 545.071C384.513 545.475 391.275 547.617 397.578 550.301C403.879 552.985 409.707 556.205 413.96 558.754C417.067 560.616 421.212 558.405 421.212 554.764V12.2831C421.212 9.80077 419.199 7.78842 416.717 7.78842Z" stroke="#10A600" stroke-width="0.42316" shape-rendering="crispEdges"/>
</g>
<defs>
<filter id="filter0_d_188_217" x="-0.00216103" y="0.38312" width="432.004" height="574.326" filterUnits="userSpaceOnUse" color-interpolation-filters="sRGB">
<feFlood flood-opacity="0" result="BackgroundImageFix"/>
<feColorMatrix in="SourceAlpha" type="matrix" values="0 0 0 0 0 0 0 0 0 0 0 0 0 0 0 0 0 0 127 0" result="hardAlpha"/>
<feOffset dy="3.38528"/>
<feGaussianBlur stdDeviation="5.2895"/>
<feComposite in2="hardAlpha" operator="out"/>
<feColorMatrix type="matrix" values="0 0 0 0 0 0 0 0 0 0 0 0 0 0 0 0 0 0 0.15 0"/>
<feBlend mode="normal" in2="BackgroundImageFix" result="effect1_dropShadow_188_217"/>
<feBlend mode="normal" in="SourceGraphic" in2="effect1_dropShadow_188_217" result="shape"/>
</filter>
</defs>
</svg>
